<svg id="svg" version="1.1" xmlns="http://www.w3.org/2000/svg" xmlns:xlink="http://www.w3.org/1999/xlink" width="400" height="400" viewBox="0, 0, 400,400"><g id="svgg"><path id="path0" d="M143.833 8.043 C 121.713 14.565,99.700 25.442,82.035 38.577 L 78.236 41.402 112.867 76.034 C 131.915 95.082,147.537 110.667,147.583 110.667 C 147.629 110.667,147.667 87.342,147.667 58.833 C 147.667 30.325,147.554 7.013,147.417 7.030 C 147.279 7.046,145.667 7.502,143.833 8.043 M252.333 58.916 L 252.333 110.832 287.000 76.167 C 306.067 57.101,321.657 41.426,321.646 41.334 C 321.465 39.850,298.756 25.695,288.500 20.675 C 277.648 15.363,255.624 7.000,252.487 7.000 C 252.402 7.000,252.333 30.362,252.333 58.916 M38.577 82.035 C 27.771 96.567,18.023 114.924,11.622 132.792 C 10.052 137.173,6.928 147.373,7.103 147.547 C 7.170 147.614,30.499 147.631,58.946 147.584 L 110.668 147.500 76.035 112.868 L 41.402 78.236 38.577 82.035 M323.834 112.987 L 289.168 147.667 341.106 147.667 C 390.411 147.667,393.037 147.637,392.884 147.083 C 386.270 123.163,371.960 94.218,359.423 79.399 L 358.500 78.308 323.834 112.987 M7.116 252.917 C 13.734 276.852,28.032 305.774,40.577 320.601 L 41.500 321.692 76.166 287.013 L 110.832 252.333 58.894 252.333 C 9.589 252.333,6.963 252.363,7.116 252.917 M323.833 287.000 C 342.899 306.067,358.574 321.660,358.666 321.653 C 358.988 321.627,365.471 312.377,368.613 307.461 C 379.238 290.837,387.586 272.075,392.884 252.917 C 393.037 252.363,390.411 252.333,341.106 252.333 L 289.168 252.333 323.833 287.000 M112.868 323.965 L 78.236 358.598 82.035 361.412 C 97.565 372.914,116.966 383.029,135.500 389.286 C 140.815 391.080,147.405 393.040,147.570 392.875 C 147.624 392.820,147.631 369.501,147.584 341.054 L 147.500 289.332 112.868 323.965 M252.333 341.090 L 252.333 393.013 253.250 392.788 C 265.772 389.725,285.290 381.590,299.123 373.671 C 306.504 369.445,321.575 359.407,321.650 358.666 C 321.659 358.574,306.067 342.899,287.000 323.833 L 252.333 289.168 252.333 341.090 " stroke="none" fill="#2454b4" fill-rule="evenodd"></path><path id="path1" d="M187.167 0.334 C 183.976 0.578,179.624 0.951,177.500 1.162 C 177.133 1.198,176.196 1.340,175.417 1.477 L 174.000 1.725 174.000 87.863 L 174.000 174.000 87.870 174.000 L 1.741 174.000 1.541 175.083 C -0.304 185.091,-0.304 214.909,1.541 224.917 L 1.741 226.000 87.870 226.000 L 174.000 226.000 174.000 312.137 L 174.000 398.275 175.417 398.523 C 183.285 399.904,206.797 400.387,216.667 399.372 C 218.408 399.193,220.871 398.957,222.140 398.849 C 223.408 398.740,224.796 398.563,225.223 398.456 L 226.000 398.261 226.000 312.131 L 226.000 226.000 312.130 226.000 L 398.259 226.000 398.494 224.750 C 398.623 224.063,398.778 222.975,398.839 222.333 C 398.900 221.692,399.148 219.067,399.391 216.500 C 400.330 206.587,399.783 182.265,398.459 175.083 L 398.259 174.000 312.130 174.000 L 226.000 174.000 226.000 87.870 L 226.000 1.741 224.750 1.505 C 224.063 1.375,222.750 1.203,221.833 1.123 C 220.917 1.043,218.667 0.823,216.833 0.634 C 212.453 0.185,191.845 -0.024,187.167 0.334 M290.416 85.084 L 252.333 123.168 252.333 135.333 L 252.333 147.499 296.838 103.000 L 341.343 58.500 338.422 55.646 C 335.340 52.635,328.992 47.000,328.682 47.000 C 328.581 47.000,311.362 64.138,290.416 85.084 M55.381 61.838 C 52.025 65.347,47.000 71.034,47.000 71.321 C 47.000 71.420,64.140 88.640,85.088 109.588 L 123.176 147.675 135.255 147.588 L 147.335 147.500 102.895 103.061 L 58.455 58.622 55.381 61.838 M296.990 296.823 L 341.479 341.313 342.283 340.573 C 343.488 339.464,350.311 332.047,351.809 330.219 L 353.119 328.620 314.977 290.477 L 276.834 252.333 264.668 252.333 L 252.501 252.333 296.990 296.823 M103.080 297.087 L 58.659 341.508 61.246 344.041 C 64.222 346.954,71.008 353.000,71.303 353.000 C 71.412 353.000,88.640 335.860,109.588 314.912 L 147.675 276.824 147.588 264.745 L 147.500 252.665 103.080 297.087 " stroke="none" fill="#d42c2c" fill-rule="evenodd"></path><path id="path2" d="M166.333 2.664 C 160.949 3.592,151.233 5.680,149.083 6.370 L 148.000 6.718 148.000 58.942 L 148.000 111.165 113.024 76.191 L 78.049 41.217 76.774 42.188 C 72.015 45.813,58.667 57.669,58.667 58.271 C 58.667 58.398,78.692 78.526,103.167 103.000 C 127.642 127.474,147.667 147.612,147.667 147.750 C 147.667 147.887,142.154 148.000,135.416 148.000 L 123.166 148.000 84.860 109.693 L 46.554 71.386 44.731 73.610 C 43.728 74.833,42.527 76.332,42.062 76.941 L 41.217 78.049 76.191 113.024 L 111.165 148.000 58.929 148.000 L 6.692 148.000 6.172 149.750 C 4.960 153.831,1.667 170.876,1.667 173.072 C 1.667 173.641,5.348 173.667,87.667 173.667 L 173.667 173.667 173.667 87.667 L 173.667 1.667 172.750 1.691 C 172.246 1.704,169.358 2.142,166.333 2.664 M226.333 87.667 L 226.333 173.667 312.333 173.667 C 397.133 173.667,398.333 173.658,398.333 173.022 C 398.333 170.837,395.133 154.350,393.816 149.750 L 393.315 148.000 341.075 148.000 L 288.835 148.000 323.809 113.024 L 358.783 78.049 357.812 76.774 C 354.187 72.015,342.331 58.667,341.729 58.667 C 341.602 58.667,321.474 78.692,297.000 103.167 C 272.526 127.642,252.388 147.667,252.250 147.667 C 252.113 147.667,252.000 142.154,252.000 135.416 L 252.000 123.166 290.307 84.860 L 328.614 46.554 326.390 44.731 C 325.167 43.728,323.668 42.527,323.059 42.062 L 321.951 41.217 286.977 76.190 L 252.002 111.163 251.918 58.856 L 251.833 6.548 250.833 6.279 C 245.631 4.877,229.024 1.667,226.978 1.667 C 226.342 1.667,226.333 2.867,226.333 87.667 M1.667 226.978 C 1.667 229.163,4.867 245.650,6.184 250.250 L 6.685 252.000 58.925 252.000 L 111.165 252.000 76.190 286.977 C 49.751 313.417,41.295 322.061,41.545 322.394 C 44.602 326.449,54.963 338.327,57.474 340.653 L 58.359 341.474 102.930 296.903 C 127.444 272.390,147.613 252.333,147.750 252.333 C 147.888 252.333,148.000 257.846,148.000 264.584 L 148.000 276.834 109.693 315.140 L 71.386 353.446 73.610 355.269 C 74.833 356.272,76.332 357.473,76.941 357.938 L 78.049 358.783 113.024 323.809 L 148.000 288.835 148.000 341.075 L 148.000 393.315 149.750 393.808 C 154.614 395.179,170.868 398.333,173.072 398.333 C 173.641 398.333,173.667 394.652,173.667 312.333 L 173.667 226.333 87.667 226.333 C 2.867 226.333,1.667 226.342,1.667 226.978 M226.333 312.333 C 226.333 397.133,226.342 398.333,226.978 398.333 C 229.163 398.333,245.650 395.133,250.250 393.816 L 252.000 393.315 252.000 341.075 L 252.000 288.835 286.977 323.810 C 313.417 350.249,322.061 358.705,322.394 358.455 C 326.449 355.398,338.327 345.037,340.653 342.526 L 341.474 341.641 296.903 297.070 C 272.390 272.556,252.333 252.387,252.333 252.250 C 252.333 252.112,257.846 252.000,264.584 252.000 L 276.834 252.000 315.140 290.307 L 353.446 328.614 355.269 326.390 C 356.272 325.167,357.473 323.668,357.938 323.059 L 358.783 321.951 323.809 286.976 L 288.835 252.000 341.075 252.000 L 393.315 252.000 393.816 250.250 C 395.133 245.650,398.333 229.163,398.333 226.978 C 398.333 226.342,397.133 226.333,312.333 226.333 L 226.333 226.333 226.333 312.333 " stroke="none" fill="#f4f4f4" fill-rule="evenodd"></path><path id="path3" d="M189.083 0.230 C 189.404 0.314,189.929 0.314,190.250 0.230 C 190.571 0.146,190.308 0.077,189.667 0.077 C 189.025 0.077,188.762 0.146,189.083 0.230 M209.750 0.230 C 210.071 0.314,210.596 0.314,210.917 0.230 C 211.237 0.146,210.975 0.077,210.333 0.077 C 209.692 0.077,209.429 0.146,209.750 0.230 M173.889 1.556 C 173.767 1.678,173.667 40.452,173.667 87.722 L 173.667 173.665 87.583 173.749 L 1.500 173.833 1.456 174.588 C 1.419 175.217,1.437 175.231,1.562 174.672 C 1.713 174.000,1.767 174.000,87.857 174.000 L 174.000 174.000 174.000 87.857 L 174.000 1.713 174.750 1.569 C 175.446 1.435,175.450 1.421,174.806 1.379 C 174.424 1.354,174.011 1.433,173.889 1.556 M225.250 1.552 L 226.000 1.713 226.000 87.857 L 226.000 174.000 312.143 174.000 C 398.233 174.000,398.287 174.000,398.438 174.672 C 398.563 175.231,398.581 175.217,398.544 174.588 L 398.500 173.833 312.417 173.749 L 226.335 173.665 226.251 87.583 L 226.167 1.500 225.333 1.445 C 224.599 1.397,224.589 1.410,225.250 1.552 M290.249 84.917 L 252.000 123.168 252.000 135.417 C 252.000 142.154,252.113 147.667,252.250 147.667 C 252.388 147.667,272.565 127.602,297.088 103.078 L 341.676 58.490 339.421 56.328 L 337.167 54.167 339.246 56.338 L 341.325 58.509 296.829 103.004 L 252.333 147.499 252.333 135.332 L 252.333 123.166 290.484 85.016 L 328.634 46.867 329.400 47.517 L 330.167 48.167 329.532 47.417 C 329.182 47.004,328.807 46.667,328.698 46.667 C 328.588 46.667,311.287 63.879,290.249 84.917 M330.667 48.438 C 330.667 48.495,331.154 48.983,331.750 49.521 L 332.833 50.500 331.854 49.417 C 330.942 48.407,330.667 48.180,330.667 48.438 M333.333 50.771 C 333.333 50.828,333.821 51.316,334.417 51.854 L 335.500 52.833 334.521 51.750 C 333.608 50.740,333.333 50.513,333.333 50.771 M56.328 60.579 L 54.167 62.833 56.338 60.754 L 58.509 58.675 103.004 103.171 L 147.499 147.667 135.332 147.667 L 123.166 147.667 85.016 109.516 L 46.867 71.366 47.505 70.600 L 48.142 69.833 47.326 70.588 L 46.510 71.342 84.838 109.671 L 123.166 148.000 135.416 148.000 C 142.154 148.000,147.667 147.887,147.667 147.750 C 147.667 147.612,127.602 127.435,103.078 102.912 L 58.490 58.324 56.328 60.579 M51.818 65.417 L 50.500 66.833 51.917 65.516 C 52.696 64.791,53.333 64.153,53.333 64.099 C 53.333 63.847,53.043 64.099,51.818 65.417 M0.084 189.500 C 0.088 190.233,0.156 190.494,0.236 190.079 C 0.315 189.665,0.312 189.065,0.229 188.746 C 0.146 188.427,0.080 188.767,0.084 189.500 M399.751 189.833 C 399.754 190.567,399.823 190.827,399.902 190.413 C 399.982 189.998,399.979 189.398,399.896 189.079 C 399.812 188.761,399.747 189.100,399.751 189.833 M399.751 210.167 C 399.754 210.900,399.823 211.161,399.902 210.746 C 399.982 210.331,399.979 209.731,399.896 209.413 C 399.812 209.094,399.747 209.433,399.751 210.167 M0.077 210.667 C 0.077 211.308,0.146 211.571,0.230 211.250 C 0.314 210.929,0.314 210.404,0.230 210.083 C 0.146 209.762,0.077 210.025,0.077 210.667 M1.445 225.333 L 1.500 226.167 87.583 226.251 L 173.665 226.335 173.749 312.417 L 173.833 398.500 174.588 398.544 C 175.217 398.581,175.231 398.563,174.672 398.438 C 174.000 398.287,174.000 398.233,174.000 312.143 L 174.000 226.000 87.857 226.000 L 1.713 226.000 1.552 225.250 C 1.410 224.589,1.397 224.599,1.445 225.333 M398.360 225.250 L 398.333 226.000 312.167 226.000 L 226.000 226.000 226.000 312.142 C 226.000 380.759,225.915 398.313,225.583 398.424 C 225.344 398.505,225.379 398.549,225.667 398.528 C 226.109 398.495,226.176 388.648,226.251 312.412 L 226.335 226.333 312.344 226.333 C 403.786 226.333,399.153 226.409,398.558 224.928 C 398.463 224.692,398.374 224.838,398.360 225.250 M252.333 252.250 C 252.333 252.388,272.398 272.565,296.922 297.088 L 341.510 341.676 343.672 339.421 L 345.833 337.167 343.662 339.246 L 341.491 341.325 296.996 296.829 L 252.501 252.333 264.668 252.333 L 276.834 252.333 314.984 290.484 L 353.133 328.634 352.495 329.400 L 351.858 330.167 352.674 329.412 L 353.490 328.658 315.162 290.329 L 276.834 252.000 264.584 252.000 C 257.846 252.000,252.333 252.113,252.333 252.250 M102.912 296.922 L 58.324 341.510 60.579 343.672 L 62.833 345.833 60.754 343.662 L 58.675 341.491 103.171 296.996 L 147.667 252.501 147.667 264.668 L 147.667 276.834 109.516 314.984 L 71.366 353.133 70.600 352.495 L 69.833 351.858 70.588 352.674 L 71.342 353.490 109.671 315.162 L 148.000 276.834 148.000 264.584 C 148.000 257.846,147.887 252.333,147.750 252.333 C 147.612 252.333,127.435 272.398,102.912 296.922 M347.818 334.750 L 346.500 336.167 347.917 334.849 C 349.234 333.624,349.487 333.333,349.234 333.333 C 349.180 333.333,348.542 333.971,347.818 334.750 M65.167 348.000 C 65.883 348.733,66.544 349.333,66.635 349.333 C 66.727 349.333,66.216 348.733,65.500 348.000 C 64.784 347.267,64.123 346.667,64.031 346.667 C 63.940 346.667,64.451 347.267,65.167 348.000 M67.333 349.771 C 67.333 349.828,67.821 350.316,68.417 350.854 L 69.500 351.833 68.521 350.750 C 67.608 349.740,67.333 349.513,67.333 349.771 M189.083 399.896 C 189.404 399.980,189.929 399.980,190.250 399.896 C 190.571 399.813,190.308 399.744,189.667 399.744 C 189.025 399.744,188.762 399.813,189.083 399.896 M209.750 399.896 C 210.071 399.980,210.596 399.980,210.917 399.896 C 211.237 399.813,210.975 399.744,210.333 399.744 C 209.692 399.744,209.429 399.813,209.750 399.896 " stroke="none" fill="#e4a9b4" fill-rule="evenodd"></path><path id="path4" d="M147.584 40.083 C 147.630 58.462,147.706 81.975,147.753 92.333 C 147.800 102.692,147.875 87.654,147.919 58.917 C 147.964 30.179,147.887 6.667,147.750 6.667 C 147.612 6.667,147.538 21.704,147.584 40.083 M252.081 58.917 C 252.125 87.654,252.200 102.692,252.247 92.333 C 252.475 42.374,252.476 6.667,252.250 6.667 C 252.112 6.667,252.036 30.179,252.081 58.917 M118.333 17.167 C 117.875 17.429,117.650 17.643,117.833 17.643 C 118.017 17.643,118.542 17.429,119.000 17.167 C 119.458 16.905,119.683 16.690,119.500 16.690 C 119.317 16.690,118.792 16.905,118.333 17.167 M281.000 17.167 C 281.458 17.429,281.983 17.643,282.167 17.643 C 282.350 17.643,282.125 17.429,281.667 17.167 C 281.208 16.905,280.683 16.690,280.500 16.690 C 280.317 16.690,280.542 16.905,281.000 17.167 M113.667 19.333 C 112.658 19.866,111.983 20.302,112.167 20.302 C 112.350 20.302,113.325 19.866,114.333 19.333 C 115.342 18.801,116.017 18.365,115.833 18.365 C 115.650 18.365,114.675 18.801,113.667 19.333 M285.333 19.167 C 286.158 19.608,286.983 19.970,287.167 19.970 C 287.350 19.970,286.825 19.608,286.000 19.167 C 285.175 18.725,284.350 18.363,284.167 18.363 C 283.983 18.363,284.508 18.725,285.333 19.167 M107.583 22.355 C 106.529 22.899,105.667 23.419,105.667 23.510 C 105.667 23.602,106.567 23.222,107.667 22.667 C 108.767 22.111,109.667 21.584,109.667 21.495 C 109.667 21.273,109.728 21.247,107.583 22.355 M292.333 22.483 C 292.333 22.575,292.783 22.882,293.333 23.167 C 293.883 23.451,294.333 23.609,294.333 23.517 C 294.333 23.425,293.883 23.118,293.333 22.833 C 292.783 22.549,292.333 22.391,292.333 22.483 M102.917 24.857 C 101.671 25.533,101.746 25.815,103.000 25.167 C 103.550 24.882,104.000 24.578,104.000 24.491 C 104.000 24.277,103.964 24.289,102.917 24.857 M93.083 30.705 C 91.947 31.433,91.579 31.921,92.583 31.369 C 93.348 30.949,94.546 30.023,94.333 30.016 C 94.242 30.013,93.679 30.323,93.083 30.705 M306.167 30.506 C 306.533 30.805,307.133 31.196,307.500 31.376 L 308.167 31.703 307.500 31.161 C 307.133 30.862,306.533 30.471,306.167 30.291 L 305.500 29.963 306.167 30.506 M84.500 36.529 L 83.500 37.388 84.583 36.672 C 85.179 36.277,85.667 35.890,85.667 35.811 C 85.667 35.561,85.526 35.648,84.500 36.529 M314.333 35.788 C 314.333 35.880,314.783 36.275,315.333 36.667 C 315.883 37.058,316.333 37.304,316.333 37.212 C 316.333 37.120,315.883 36.725,315.333 36.333 C 314.783 35.942,314.333 35.696,314.333 35.788 M81.987 38.357 L 80.833 39.381 82.083 38.484 C 83.188 37.692,83.547 37.333,83.237 37.333 C 83.185 37.333,82.622 37.794,81.987 38.357 M317.902 38.368 C 318.354 38.929,321.333 41.122,321.333 40.894 C 321.333 40.813,320.471 40.100,319.417 39.308 C 318.362 38.517,317.681 38.094,317.902 38.368 M40.276 79.278 C 39.786 79.950,38.910 81.137,38.330 81.917 C 37.750 82.696,37.345 83.333,37.431 83.333 C 37.659 83.333,41.409 78.298,41.278 78.167 C 41.217 78.106,40.766 78.606,40.276 79.278 M358.667 78.129 C 358.667 78.420,362.361 83.333,362.580 83.333 C 362.671 83.333,362.324 82.771,361.808 82.083 C 359.054 78.410,358.667 77.923,358.667 78.129 M36.333 84.667 C 35.942 85.217,35.696 85.667,35.788 85.667 C 35.880 85.667,36.275 85.217,36.667 84.667 C 37.058 84.117,37.304 83.667,37.212 83.667 C 37.120 83.667,36.725 84.117,36.333 84.667 M363.333 84.667 C 363.725 85.217,364.120 85.667,364.212 85.667 C 364.304 85.667,364.058 85.217,363.667 84.667 C 363.275 84.117,362.880 83.667,362.788 83.667 C 362.696 83.667,362.942 84.117,363.333 84.667 M31.127 92.417 C 29.980 94.363,29.905 94.530,30.489 93.833 C 31.166 93.027,31.750 92.000,31.531 92.000 C 31.444 92.000,31.262 92.188,31.127 92.417 M368.624 92.500 C 368.804 92.867,369.195 93.467,369.494 93.833 L 370.037 94.500 369.709 93.833 C 369.529 93.467,369.138 92.867,368.839 92.500 L 368.297 91.833 368.624 92.500 M374.833 103.000 C 375.118 103.550,375.425 104.000,375.517 104.000 C 375.609 104.000,375.451 103.550,375.167 103.000 C 374.882 102.450,374.575 102.000,374.483 102.000 C 374.391 102.000,374.549 102.450,374.833 103.000 M377.167 107.333 C 377.813 108.617,378.417 109.667,378.508 109.667 C 378.600 109.667,378.146 108.617,377.500 107.333 C 376.854 106.050,376.250 105.000,376.158 105.000 C 376.067 105.000,376.520 106.050,377.167 107.333 M22.333 107.667 C 21.778 108.767,21.399 109.667,21.490 109.667 C 21.582 109.667,22.111 108.767,22.667 107.667 C 23.222 106.567,23.601 105.667,23.510 105.667 C 23.418 105.667,22.889 106.567,22.333 107.667 M19.232 113.850 C 18.008 116.345,18.121 116.641,19.372 114.217 C 19.925 113.144,20.322 112.211,20.254 112.143 C 20.186 112.074,19.726 112.843,19.232 113.850 M379.698 112.167 C 379.698 112.350,380.134 113.325,380.667 114.333 C 381.199 115.342,381.635 116.017,381.635 115.833 C 381.635 115.650,381.199 114.675,380.667 113.667 C 380.134 112.658,379.698 111.983,379.698 112.167 M17.054 118.514 C 16.496 119.740,16.602 120.002,17.206 118.887 C 17.488 118.367,17.656 117.879,17.580 117.802 C 17.504 117.726,17.267 118.047,17.054 118.514 M382.357 117.833 C 382.357 118.017,382.571 118.542,382.833 119.000 C 383.095 119.458,383.310 119.683,383.310 119.500 C 383.310 119.317,383.095 118.792,382.833 118.333 C 382.571 117.875,382.357 117.650,382.357 117.833 M6.667 147.750 C 6.667 147.887,30.179 147.964,58.917 147.919 C 87.654 147.875,102.692 147.800,92.333 147.753 C 42.374 147.525,6.667 147.524,6.667 147.750 M341.000 147.667 L 288.833 147.836 341.083 147.918 C 375.749 147.972,393.333 147.888,393.333 147.667 C 393.333 147.483,393.296 147.370,393.250 147.415 C 393.204 147.460,369.692 147.573,341.000 147.667 M6.667 252.250 C 6.667 252.476,42.374 252.475,92.333 252.247 C 102.692 252.200,87.654 252.125,58.917 252.081 C 30.179 252.036,6.667 252.112,6.667 252.250 M307.667 252.247 C 357.626 252.475,393.333 252.476,393.333 252.250 C 393.333 252.112,369.821 252.036,341.083 252.081 C 312.346 252.125,297.308 252.200,307.667 252.247 M16.690 280.500 C 16.690 280.683,16.905 281.208,17.167 281.667 C 17.429 282.125,17.643 282.350,17.643 282.167 C 17.643 281.983,17.429 281.458,17.167 281.000 C 16.905 280.542,16.690 280.317,16.690 280.500 M382.721 281.181 C 382.162 282.407,382.269 282.668,382.873 281.554 C 383.155 281.033,383.323 280.545,383.247 280.469 C 383.171 280.393,382.934 280.713,382.721 281.181 M18.363 284.167 C 18.363 284.350,18.725 285.175,19.167 286.000 C 19.608 286.825,19.970 287.350,19.970 287.167 C 19.970 286.983,19.608 286.158,19.167 285.333 C 18.725 284.508,18.363 283.983,18.363 284.167 M380.730 285.516 C 379.725 287.583,379.837 287.872,380.872 285.884 C 381.334 284.995,381.656 284.211,381.586 284.141 C 381.516 284.072,381.131 284.690,380.730 285.516 M147.585 341.167 C 147.538 369.858,147.612 393.333,147.750 393.333 C 147.887 393.333,148.000 369.858,148.000 341.167 C 148.000 312.475,147.926 289.000,147.835 289.000 C 147.745 289.000,147.632 312.475,147.585 341.167 M252.081 341.083 C 252.036 369.821,252.112 393.333,252.250 393.333 C 252.476 393.333,252.475 357.626,252.247 307.667 C 252.200 297.308,252.125 312.346,252.081 341.083 M22.333 292.333 C 22.889 293.433,23.418 294.333,23.510 294.333 C 23.601 294.333,23.222 293.433,22.667 292.333 C 22.111 291.233,21.582 290.333,21.490 290.333 C 21.399 290.333,21.778 291.233,22.333 292.333 M377.167 292.667 C 376.702 293.583,376.397 294.333,376.489 294.333 C 376.580 294.333,377.035 293.583,377.500 292.667 C 377.965 291.750,378.270 291.000,378.178 291.000 C 378.086 291.000,377.631 291.750,377.167 292.667 M24.833 297.000 C 25.118 297.550,25.425 298.000,25.517 298.000 C 25.609 298.000,25.451 297.550,25.167 297.000 C 24.882 296.450,24.575 296.000,24.483 296.000 C 24.391 296.000,24.549 296.450,24.833 297.000 M374.833 297.000 C 374.549 297.550,374.391 298.000,374.483 298.000 C 374.575 298.000,374.882 297.550,375.167 297.000 C 375.451 296.450,375.609 296.000,375.517 296.000 C 375.425 296.000,375.118 296.450,374.833 297.000 M30.291 306.167 C 30.471 306.533,30.862 307.133,31.161 307.500 L 31.703 308.167 31.376 307.500 C 31.196 307.133,30.805 306.533,30.506 306.167 L 29.963 305.500 30.291 306.167 M369.460 306.083 C 368.313 308.030,368.238 308.196,368.823 307.500 C 369.500 306.693,370.083 305.667,369.865 305.667 C 369.777 305.667,369.595 305.854,369.460 306.083 M36.333 315.333 C 36.725 315.883,37.120 316.333,37.212 316.333 C 37.304 316.333,37.058 315.883,36.667 315.333 C 36.275 314.783,35.880 314.333,35.788 314.333 C 35.696 314.333,35.942 314.783,36.333 315.333 M38.192 317.917 C 40.946 321.590,41.333 322.077,41.333 321.871 C 41.333 321.580,37.639 316.667,37.420 316.667 C 37.329 316.667,37.676 317.229,38.192 317.917 M361.476 317.917 C 360.961 318.604,360.177 319.692,359.733 320.333 L 358.926 321.500 359.796 320.500 C 360.917 319.211,362.752 316.667,362.560 316.667 C 362.479 316.667,361.991 317.229,361.476 317.917 M79.369 359.769 C 80.174 360.375,81.396 361.293,82.083 361.808 C 82.771 362.324,83.333 362.671,83.333 362.580 C 83.333 362.361,78.420 358.667,78.129 358.667 C 78.005 358.667,78.563 359.163,79.369 359.769 M319.167 360.527 C 318.067 361.357,317.017 362.202,316.833 362.404 C 316.421 362.860,319.135 360.965,320.500 359.845 C 322.171 358.473,321.295 358.921,319.167 360.527 M315.167 363.529 L 314.167 364.388 315.250 363.672 C 315.846 363.277,316.333 362.890,316.333 362.811 C 316.333 362.561,316.192 362.648,315.167 363.529 M92.500 368.839 C 92.867 369.138,93.467 369.529,93.833 369.709 L 94.500 370.037 93.833 369.494 C 93.467 369.195,92.867 368.804,92.500 368.624 L 91.833 368.297 92.500 368.839 M96.833 371.497 C 97.578 372.116,99.690 373.257,99.167 372.758 C 98.983 372.583,98.233 372.103,97.500 371.691 C 96.767 371.280,96.467 371.192,96.833 371.497 M102.000 374.483 C 102.000 374.575,102.450 374.882,103.000 375.167 C 103.550 375.451,104.000 375.609,104.000 375.517 C 104.000 375.425,103.550 375.118,103.000 374.833 C 102.450 374.549,102.000 374.391,102.000 374.483 M105.667 376.490 C 105.667 376.582,106.567 377.111,107.667 377.667 C 108.767 378.222,109.667 378.601,109.667 378.510 C 109.667 378.418,108.767 377.889,107.667 377.333 C 106.567 376.778,105.667 376.399,105.667 376.490 M292.917 377.023 C 292.229 377.386,291.667 377.757,291.667 377.848 C 291.667 377.939,292.267 377.707,293.000 377.333 C 293.733 376.959,294.333 376.581,294.333 376.493 C 294.333 376.275,294.331 376.276,292.917 377.023 M113.333 380.500 C 114.525 381.124,115.650 381.634,115.833 381.634 C 116.017 381.634,115.192 381.124,114.000 380.500 C 112.808 379.876,111.683 379.366,111.500 379.366 C 111.317 379.366,112.142 379.876,113.333 380.500 M285.333 380.833 C 284.508 381.275,283.983 381.637,284.167 381.637 C 284.350 381.637,285.175 381.275,286.000 380.833 C 286.825 380.392,287.350 380.030,287.167 380.030 C 286.983 380.030,286.158 380.392,285.333 380.833 M118.000 382.667 C 118.642 383.018,119.317 383.305,119.500 383.305 C 119.683 383.305,119.308 383.018,118.667 382.667 C 118.025 382.315,117.350 382.028,117.167 382.028 C 116.983 382.028,117.358 382.315,118.000 382.667 M281.000 382.833 C 280.542 383.095,280.317 383.310,280.500 383.310 C 280.683 383.310,281.208 383.095,281.667 382.833 C 282.125 382.571,282.350 382.357,282.167 382.357 C 281.983 382.357,281.458 382.571,281.000 382.833 " stroke="none" fill="#83a3d3" fill-rule="evenodd"></path></g></svg>